# xmcd
#
# Track frame offsets:
#	150
#	20100
#	42149
#	62473
#	79872
#	91571
#	104995
#	119094
#	138743
#	157942
#	173691
#	190415
#	216514
#	235113
#	250562
#	269311
#	284235
#
# Disc length: 4039 seconds
#
# Revision: 0
# Processed by: cddbd v1.5.2PL0 Copyright (c) Steve Scherf et al.
# Submitted via: SynApp - FreeCDDB Version: 2.3
#
DISCID=fa0fc511
DTITLE=Young Hope - Live
DYEAR=2001
DGENRE=Chor&Band
TTITLE0=Hold the line
TTITLE1=Holly holy
TTITLE2=Beds are burning
TTITLE3=Jesus lover of my soul
TTITLE4=Science fiction
TTITLE5=Over at the frankenstein place
TTITLE6=Time warp
TTITLE7=Sweet transvestite
TTITLE8=25 minutes
TTITLE9=I'm gonna make you love me
TTITLE10=Candle in the wind
TTITLE11=Comfordably numb
TTITLE12=Melting pot
TTITLE13=Peace now
TTITLE14=Proud mary
TTITLE15=Son of a preacherman
TTITLE16=O happy day
EXTD=
EXTT0=
EXTT1=
EXTT2=
EXTT3=
EXTT4=
EXTT5=
EXTT6=
EXTT7=
EXTT8=
EXTT9=
EXTT10=
EXTT11=
EXTT12=
EXTT13=
EXTT14=
EXTT15=
EXTT16=
PLAYORDER=
